<svg width="390" height="390" viewBox="0 0 390 390" fill="none" xmlns="http://www.w3.org/2000/svg">
<circle cx="195" cy="195" r="195" fill="#00C6A9"/>
<path fill-rule="evenodd" clip-rule="evenodd" d="M230.221 68.9898C216.971 55.7406 170.81 80.4211 127.115 124.115C83.4211 167.81 58.7406 213.971 71.9898 227.221C85.239 240.47 131.401 215.789 175.095 172.095C218.789 128.401 243.47 82.239 230.221 68.9898ZM134.639 132.926C170.231 97.3332 205.78 75.1747 214.039 83.4334C222.297 91.6921 200.139 127.24 164.546 162.833C128.954 198.426 93.4052 220.584 85.1465 212.325C76.8878 204.067 99.0463 168.518 134.639 132.926Z" fill="url(#paint0_linear_2619_1235)"/>
<path fill-rule="evenodd" clip-rule="evenodd" d="M172.532 174.633C135.299 211.149 97.7138 232.528 87.7701 222.584C77.5981 212.412 100.203 173.315 138.259 135.259C176.315 97.2029 215.412 74.5982 225.584 84.7702C235.523 94.7097 214.167 132.267 177.68 169.485C219.756 126.577 243.206 81.9755 230.22 68.9898C216.971 55.7406 170.809 80.4211 127.115 124.115C83.421 167.81 58.7405 213.971 71.9897 227.221C84.9802 240.211 129.61 216.739 172.532 174.633Z" fill="url(#paint1_linear_2619_1235)"/>
<path fill-rule="evenodd" clip-rule="evenodd" d="M266.763 263.762C236.464 294.06 204.455 311.174 195.268 301.987C186.08 292.8 203.194 260.79 233.493 230.492C263.791 200.193 295.801 183.079 304.988 192.266C314.175 201.454 297.061 233.463 266.763 263.762ZM261.546 257.652C236.865 282.333 212.215 297.698 206.489 291.972C200.762 286.245 216.127 261.595 240.808 236.914C265.488 212.233 290.138 196.868 295.865 202.595C301.592 208.322 286.227 232.972 261.546 257.652Z" fill="url(#paint2_linear_2619_1235)"/>
<path fill-rule="evenodd" clip-rule="evenodd" d="M236.174 227.848C265.657 199.208 296.07 183.35 304.987 192.267C314.174 201.454 297.06 233.464 266.762 263.762C236.463 294.061 204.454 311.175 195.266 301.987C186.35 293.071 202.207 262.658 230.847 233.176C206.066 258.695 191.667 284.23 198.481 291.045C205.535 298.098 232.645 282.424 259.034 256.035C285.423 229.646 301.098 202.535 294.044 195.482C287.23 188.667 261.694 203.067 236.174 227.848Z" fill="url(#paint3_linear_2619_1235)"/>
<path fill-rule="evenodd" clip-rule="evenodd" d="M227.668 284.898C225.977 286.589 223.235 286.589 221.543 284.898L198.064 261.419C196.373 259.727 196.373 256.985 198.064 255.294C199.755 253.602 202.498 253.602 204.189 255.294L227.668 278.773C229.36 280.464 229.36 283.207 227.668 284.898ZM288.919 223.648C287.228 225.339 284.485 225.339 282.794 223.648L238.898 179.751C237.206 178.06 237.206 175.318 238.898 173.626C240.589 171.935 243.331 171.935 245.023 173.626L288.919 217.522C290.61 219.214 290.61 221.956 288.919 223.648ZM246.044 242.023C244.352 243.714 241.61 243.714 239.919 242.023L232.773 234.877C231.081 233.185 231.081 230.443 232.773 228.752C234.464 227.06 237.206 227.06 238.898 228.752L246.044 235.898C247.735 237.589 247.735 240.331 246.044 242.023ZM214.397 210.377C212.706 212.068 209.964 212.068 208.272 210.377L160.293 162.397C158.601 160.706 158.601 157.963 160.293 156.272C161.984 154.58 164.726 154.58 166.418 156.272L214.397 204.252C216.089 205.943 216.089 208.685 214.397 210.377ZM218.481 159.334C220.172 161.026 222.915 161.026 224.606 159.334C226.297 157.643 226.297 154.901 224.606 153.209L217.46 146.063C215.769 144.372 213.026 144.372 211.335 146.063C209.644 147.755 209.644 150.497 211.335 152.188L218.481 159.334ZM190.918 131.772C192.609 133.463 195.352 133.463 197.043 131.772C198.735 130.08 198.735 127.338 197.043 125.647L184.793 113.396C183.102 111.705 180.359 111.705 178.668 113.396C176.977 115.088 176.977 117.83 178.668 119.522L190.918 131.772ZM173.564 236.918C175.255 238.61 177.997 238.61 179.689 236.918C181.38 235.227 181.38 232.485 179.689 230.793L123.542 174.647C121.851 172.956 119.109 172.956 117.417 174.647C115.726 176.338 115.726 179.081 117.417 180.772L173.564 236.918Z" fill="url(#paint4_linear_2619_1235)"/>
<rect x="88.266" y="173.646" width="124.182" height="192.939" transform="rotate(-45 88.266 173.646)" fill="url(#paint5_linear_2619_1235)" fill-opacity="0.3"/>
<defs>
<linearGradient id="paint0_linear_2619_1235" x1="71.9898" y1="227.22" x2="230.221" y2="68.9899" gradientUnits="userSpaceOnUse">
<stop stop-color="#DDDDDD"/>
<stop offset="1" stop-color="#DDDDDD"/>
</linearGradient>
<linearGradient id="paint1_linear_2619_1235" x1="230.214" y1="68.9837" x2="71.9836" y2="227.214" gradientUnits="userSpaceOnUse">
<stop stop-color="white"/>
<stop offset="1" stop-color="white"/>
</linearGradient>
<linearGradient id="paint2_linear_2619_1235" x1="304.988" y1="192.266" x2="195.268" y2="301.987" gradientUnits="userSpaceOnUse">
<stop stop-color="#DDDDDD"/>
<stop offset="1" stop-color="#DDDDDD"/>
</linearGradient>
<linearGradient id="paint3_linear_2619_1235" x1="195.276" y1="301.997" x2="304.997" y2="192.276" gradientUnits="userSpaceOnUse">
<stop stop-color="white"/>
<stop offset="1" stop-color="white"/>
</linearGradient>
<linearGradient id="paint4_linear_2619_1235" x1="254.721" y1="250.7" x2="150.595" y2="146.574" gradientUnits="userSpaceOnUse">
<stop stop-color="white" stop-opacity="0"/>
<stop offset="0.192708" stop-color="white"/>
<stop offset="0.78125" stop-color="white"/>
<stop offset="1" stop-color="white" stop-opacity="0"/>
</linearGradient>
<linearGradient id="paint5_linear_2619_1235" x1="150.357" y1="173.646" x2="150.357" y2="366.585" gradientUnits="userSpaceOnUse">
<stop stop-color="white" stop-opacity="0"/>
<stop offset="0.510417" stop-color="white"/>
<stop offset="1" stop-color="white" stop-opacity="0"/>
</linearGradient>
</defs>
</svg>
